<svg id="Layer_1" data-name="Layer 1" xmlns="http://www.w3.org/2000/svg" viewBox="0 0 152.24 52.45"><defs><style>.cls-1{fill:#a3678b;stroke:#a3678b;stroke-miterlimit:10;stroke-width:0.75px;}</style></defs><title>Logo</title><path class="cls-1" d="M60.07,35.7A26,26,0,1,1,33.86,9.85,26,26,0,0,1,60.07,35.7Zm-3.82,0c0-12-10.08-22-22.39-22a22.23,22.23,0,0,0-22,22,22.18,22.18,0,0,0,44.36,0Z" transform="translate(-7.7 -9.47)"/><path class="cls-1" d="M72.59,43.33A13.74,13.74,0,0,0,86.2,56.94a1.93,1.93,0,1,1,0,3.82A17.9,17.9,0,0,1,68.48,43V12.3c0-1.3.94-2,2.24-2a1.84,1.84,0,0,1,1.87,2V24.9H86.85c1.29,0,1.94.93,1.94,2.23A1.83,1.83,0,0,1,86.85,29H72.59Z" transform="translate(-7.7 -9.47)"/><path class="cls-1" d="M113.77,24.39a17.92,17.92,0,0,1,13,5.26,18.92,18.92,0,0,1,5.33,12.82,18.36,18.36,0,1,1-18.29-18.08Zm10.08,8.28a13,13,0,0,0-10.08-4.39,14.33,14.33,0,0,0,0,28.66,14.55,14.55,0,0,0,14.4-14.47A14.09,14.09,0,0,0,123.85,32.67Z" transform="translate(-7.7 -9.47)"/><path class="cls-1" d="M142.79,10.21a1.9,1.9,0,0,1,2,1.94V58.67a2.09,2.09,0,0,1-2,1.87,1.9,1.9,0,0,1-2-1.87V12.15A1.77,1.77,0,0,1,142.79,10.21Z" transform="translate(-7.7 -9.47)"/><path class="cls-1" d="M157.62,24.25a2,2,0,0,1,1.94,2.09V59a2.15,2.15,0,0,1-1.94,2,2,2,0,0,1-2.09-2V26.34A1.9,1.9,0,0,1,157.62,24.25Z" transform="translate(-7.7 -9.47)"/></svg>